<svg width="70" height="43" viewBox="0 0 70 43" fill="none" xmlns="http://www.w3.org/2000/svg">
<path d="M8.98101 32.1755H15.7143V37.5601H14.1653V33.2503H10.4562V37.6127H8.98101V32.1755ZM9.70807 33.5981H15.0294V34.5675H9.70807V33.5981ZM7.6217 28.2768H16.9261V29.5623H7.6217V28.2768ZM9.70807 34.8941H15.0294V35.8636H9.70807V34.8941ZM9.70807 36.2324H15.0294V37.3072H9.70807V36.2324ZM11.5099 27.6129H13.0062V29.2778H11.5099V27.6129ZM8.54898 29.0249H10.0979V30.0154C10.0979 30.1699 10.1401 30.2788 10.2244 30.3421C10.3157 30.4053 10.5194 30.4369 10.8356 30.4369C10.9199 30.4369 11.0428 30.4369 11.2044 30.4369C11.3659 30.4369 11.5521 30.4369 11.7628 30.4369C11.9736 30.4369 12.1914 30.4369 12.4161 30.4369C12.6409 30.4369 12.8587 30.4369 13.0694 30.4369C13.2872 30.4369 13.4839 30.4369 13.6595 30.4369C13.8352 30.4369 13.9721 30.4369 14.0705 30.4369C14.2953 30.4369 14.5447 30.4334 14.8186 30.4264C15.0996 30.4123 15.3666 30.3983 15.6195 30.3842C15.8724 30.3631 16.0726 30.3421 16.2201 30.321C16.2412 30.5388 16.2657 30.7671 16.2938 31.0059C16.3219 31.2377 16.35 31.4379 16.3781 31.6065C16.2587 31.6346 16.0761 31.6592 15.8302 31.6803C15.5914 31.6943 15.3314 31.7049 15.0505 31.7119C14.7695 31.7189 14.5025 31.7224 14.2496 31.7224C14.1583 31.7224 14.0248 31.7224 13.8492 31.7224C13.6736 31.7224 13.4734 31.7224 13.2486 31.7224C13.0308 31.7224 12.8025 31.7224 12.5637 31.7224C12.3248 31.7224 12.093 31.7224 11.8682 31.7224C11.6504 31.7224 11.4573 31.7224 11.2887 31.7224C11.1201 31.7224 10.9936 31.7224 10.9093 31.7224C10.3122 31.7224 9.84155 31.6697 9.49733 31.5644C9.15311 31.459 8.90725 31.2799 8.75972 31.027C8.61923 30.7741 8.54898 30.4299 8.54898 29.9943V29.0249ZM26.8205 35.8636L27.7373 35.3367C27.8848 35.4983 28.0393 35.6774 28.2009 35.8741C28.3695 36.0638 28.524 36.2534 28.6645 36.4431C28.8121 36.6258 28.928 36.7908 29.0123 36.9384L28.0428 37.539C27.9656 37.3915 27.8567 37.2194 27.7162 37.0227C27.5827 36.826 27.4352 36.6258 27.2736 36.422C27.1191 36.2183 26.9681 36.0322 26.8205 35.8636ZM24.9238 28.1292H28.8015V35.1576H27.6214V29.1935H26.0513V35.2313H24.9238V28.1292ZM30.5402 27.792H31.7309V36.1375C31.7309 36.4607 31.6958 36.7136 31.6255 36.8962C31.5553 37.0859 31.4288 37.2299 31.2462 37.3282C31.0635 37.4336 30.8317 37.5003 30.5507 37.5284C30.2697 37.5636 29.9325 37.5811 29.5391 37.5811C29.5181 37.4125 29.4689 37.2053 29.3916 36.9594C29.3214 36.7206 29.2476 36.5134 29.1703 36.3377C29.4162 36.3448 29.648 36.3483 29.8658 36.3483C30.0906 36.3483 30.2451 36.3483 30.3294 36.3483C30.4699 36.3483 30.5402 36.278 30.5402 36.1375V27.792ZM29.0966 28.5823H30.2346V35.1786H29.0966V28.5823ZM26.2937 29.6782H27.379V33.9036C27.379 34.2479 27.3509 34.5991 27.2947 34.9574C27.2385 35.3086 27.1331 35.6528 26.9786 35.99C26.8311 36.3202 26.6098 36.6258 26.3147 36.9068C26.0267 37.1877 25.6474 37.4301 25.1767 37.6338C25.1416 37.5495 25.0854 37.4441 25.0081 37.3177C24.9309 37.1983 24.8501 37.0789 24.7658 36.9594C24.6815 36.847 24.6077 36.7627 24.5445 36.7065C24.9449 36.5379 25.261 36.3518 25.4928 36.1481C25.7317 35.9373 25.9073 35.7125 26.0197 35.4737C26.1321 35.2278 26.2059 34.9714 26.241 34.7045C26.2761 34.4375 26.2937 34.1636 26.2937 33.8826V29.6782ZM22.3633 28.8036L23.2589 27.6761C23.4416 27.7604 23.6453 27.8623 23.8701 27.9817C24.0949 28.1011 24.3127 28.2206 24.5234 28.34C24.7412 28.4594 24.9168 28.5718 25.0503 28.6772L24.1125 29.9206C23.993 29.8152 23.8315 29.6958 23.6278 29.5623C23.424 29.4288 23.2098 29.2954 22.985 29.1619C22.7602 29.0284 22.553 28.909 22.3633 28.8036ZM21.9839 31.6065L22.848 30.4896C23.0306 30.5739 23.2308 30.6722 23.4486 30.7846C23.6734 30.897 23.8912 31.0129 24.1019 31.1323C24.3127 31.2447 24.4883 31.3501 24.6288 31.4485L23.712 32.6813C23.5926 32.5759 23.4311 32.46 23.2273 32.3336C23.0236 32.2071 22.8129 32.0807 22.5951 31.9543C22.3773 31.8208 22.1736 31.7049 21.9839 31.6065ZM22.142 36.7382C22.2755 36.4572 22.416 36.134 22.5635 35.7687C22.718 35.3964 22.8726 35.003 23.0271 34.5886C23.1887 34.1671 23.3362 33.7456 23.4697 33.3241L24.7131 34.1144C24.6007 34.4937 24.4778 34.8766 24.3443 35.2629C24.2178 35.6493 24.0844 36.0322 23.9439 36.4115C23.8104 36.7838 23.6734 37.1491 23.5329 37.5074L22.142 36.7382ZM38.4431 27.9501H46.5568V29.3832H38.4431V27.9501ZM37.4104 27.9501H38.9805V31.9226C38.9805 32.3512 38.97 32.8183 38.9489 33.3241C38.9278 33.8229 38.8821 34.3322 38.8119 34.852C38.7487 35.3718 38.6573 35.8706 38.5379 36.3483C38.4185 36.826 38.2569 37.251 38.0532 37.6233C37.9549 37.539 37.8214 37.4406 37.6528 37.3282C37.4842 37.2229 37.3086 37.1175 37.1259 37.0121C36.9503 36.9138 36.7958 36.84 36.6623 36.7908C36.8379 36.4536 36.9749 36.0848 37.0733 35.6844C37.1786 35.277 37.2524 34.859 37.2945 34.4305C37.3437 33.995 37.3753 33.5629 37.3894 33.1344C37.4034 32.7059 37.4104 32.302 37.4104 31.9226V27.9501ZM39.2439 31.2061H45.4187V32.6497H39.2439V31.2061ZM44.776 31.2061H46.3144C46.3144 31.2061 46.3109 31.2447 46.3039 31.322C46.3039 31.3993 46.3004 31.4906 46.2933 31.596C46.2933 31.6943 46.2898 31.7751 46.2828 31.8383C46.2477 32.6251 46.209 33.303 46.1669 33.872C46.1318 34.434 46.0896 34.9082 46.0404 35.2946C45.9913 35.6739 45.9316 35.9795 45.8613 36.2113C45.7911 36.4431 45.7068 36.6187 45.6084 36.7382C45.4539 36.9348 45.2923 37.0718 45.1237 37.1491C44.9551 37.2264 44.7584 37.2826 44.5336 37.3177C44.3439 37.3458 44.1086 37.3599 43.8276 37.3599C43.5466 37.3669 43.2516 37.3669 42.9425 37.3599C42.9284 37.1351 42.8722 36.8787 42.7739 36.5906C42.6826 36.2956 42.5667 36.0427 42.4262 35.832C42.7142 35.853 42.9881 35.8671 43.2481 35.8741C43.508 35.8811 43.7047 35.8846 43.8382 35.8846C43.9365 35.8846 44.0173 35.8741 44.0805 35.853C44.1437 35.832 44.2105 35.7898 44.2807 35.7266C44.3439 35.6634 44.4001 35.5369 44.4493 35.3472C44.5055 35.1505 44.5512 34.8836 44.5863 34.5464C44.6284 34.2022 44.6636 33.7772 44.6917 33.2714C44.7198 32.7586 44.7479 32.1545 44.776 31.459V31.2061ZM41.5516 29.8363H43.1638C43.1427 30.4404 43.1041 31.0375 43.0479 31.6276C42.9987 32.2177 42.9109 32.7937 42.7844 33.3557C42.665 33.9107 42.4859 34.441 42.247 34.9468C42.0082 35.4526 41.6886 35.9233 41.2881 36.3588C40.8877 36.7944 40.3855 37.1877 39.7813 37.539C39.69 37.3563 39.546 37.1526 39.3493 36.9278C39.1596 36.7101 38.9735 36.5344 38.7908 36.401C39.3317 36.1059 39.7708 35.7758 40.108 35.4105C40.4522 35.0381 40.7191 34.6377 40.9088 34.2092C41.0985 33.7737 41.2355 33.3206 41.3198 32.8499C41.4041 32.3722 41.4603 31.8805 41.4884 31.3747C41.5165 30.8689 41.5375 30.3561 41.5516 29.8363ZM55.7452 27.6656H57.3363V32.5127C57.3363 32.9834 57.2942 33.4365 57.2099 33.872C57.1256 34.3076 56.9781 34.7185 56.7673 35.1049C56.5566 35.4912 56.2651 35.8495 55.8927 36.1797C55.5204 36.5028 55.0498 36.7908 54.4808 37.0437C53.9188 37.2966 53.2374 37.5039 52.4365 37.6654C52.3803 37.546 52.2995 37.402 52.1942 37.2334C52.0888 37.0648 51.9729 36.8927 51.8464 36.7171C51.727 36.5485 51.6111 36.408 51.4987 36.2956C52.2433 36.1832 52.8686 36.0392 53.3743 35.8636C53.8872 35.6879 54.2981 35.4842 54.6072 35.2524C54.9233 35.0136 55.1622 34.7536 55.3237 34.4727C55.4923 34.1846 55.6047 33.8755 55.6609 33.5454C55.7171 33.2152 55.7452 32.8675 55.7452 32.5022V27.6656ZM53.8274 30.5107V31.7224H59.1804V30.5107H53.8274ZM52.3312 29.046H60.7715V33.1871H52.3312V29.046ZM54.1436 33.166C54.5018 33.7772 54.9163 34.2654 55.387 34.6307C55.8646 34.996 56.4091 35.27 57.0202 35.4526C57.6314 35.6282 58.3233 35.7441 59.0961 35.8003C59.8688 35.8495 60.7328 35.8741 61.6882 35.8741C61.5407 36.0567 61.3967 36.3026 61.2562 36.6117C61.1227 36.9208 61.0314 37.2088 60.9822 37.4758C59.9847 37.4336 59.068 37.3528 58.232 37.2334C57.3961 37.121 56.6339 36.9313 55.9454 36.6644C55.264 36.4045 54.6529 36.0357 54.1119 35.558C53.5781 35.0733 53.1144 34.4481 52.721 33.6824L54.1436 33.166Z" fill="#7F95A2"/>
<path d="M54.4175 6.17078H18.1226C13.273 6.17078 9.34155 10.1022 9.34155 14.9518C9.34155 19.8014 13.273 23.7328 18.1226 23.7328H54.4175C59.2671 23.7328 63.1985 19.8014 63.1985 14.9518C63.1985 10.1022 59.2671 6.17078 54.4175 6.17078Z" fill="#097698" stroke="#030303" stroke-width="2"/>
<path d="M19 11H54" stroke="#F3F4EB" stroke-linecap="round"/>
</svg>
