<svg width="221" height="190" viewBox="0 0 221 190" fill="none" xmlns="http://www.w3.org/2000/svg">
<path d="M106.469 165.315L114.054 160.572L117.847 166.637L116.102 167.728L113.066 162.873L108.888 165.486L111.961 170.401L110.299 171.44L106.469 165.315ZM108.29 166.405L114.285 162.657L114.968 163.749L108.973 167.497L108.29 166.405ZM102.191 161.88L112.673 155.326L113.578 156.774L103.097 163.329L102.191 161.88ZM109.203 167.865L115.198 164.117L115.881 165.209L109.886 168.957L109.203 167.865ZM110.146 169.373L116.14 165.624L116.898 166.835L110.903 170.583L110.146 169.373ZM106.104 158.394L107.789 157.34L108.962 159.215L107.277 160.269L106.104 158.394ZM103.763 162.07L105.508 160.979L106.206 162.095C106.314 162.269 106.439 162.362 106.578 162.374C106.726 162.38 106.977 162.273 107.333 162.05C107.428 161.99 107.567 161.904 107.749 161.79C107.931 161.676 108.141 161.545 108.378 161.397C108.615 161.248 108.861 161.095 109.114 160.936C109.367 160.778 109.612 160.625 109.85 160.476C110.095 160.323 110.317 160.184 110.515 160.06C110.712 159.937 110.867 159.84 110.978 159.771C111.231 159.613 111.509 159.433 111.813 159.232C112.12 159.018 112.41 158.814 112.685 158.62C112.955 158.419 113.166 158.254 113.317 158.126C113.495 158.357 113.683 158.596 113.883 158.846C114.078 159.087 114.251 159.293 114.401 159.463C114.286 159.579 114.098 159.735 113.836 159.932C113.577 160.116 113.291 160.311 112.98 160.517C112.668 160.723 112.37 160.915 112.085 161.093C111.982 161.157 111.832 161.251 111.634 161.375C111.436 161.499 111.21 161.64 110.957 161.798C110.712 161.952 110.455 162.112 110.186 162.281C109.917 162.449 109.656 162.612 109.402 162.771C109.157 162.924 108.939 163.06 108.749 163.179C108.56 163.298 108.417 163.387 108.322 163.446C107.649 163.867 107.082 164.139 106.62 164.263C106.158 164.386 105.755 164.358 105.411 164.177C105.074 163.991 104.753 163.653 104.446 163.162L103.763 162.07ZM129.163 156.902L129.825 155.663C130.105 155.741 130.405 155.834 130.726 155.942C131.049 156.037 131.357 156.141 131.649 156.256C131.944 156.358 132.19 156.462 132.389 156.569L131.72 157.928C131.529 157.817 131.285 157.7 130.989 157.577C130.7 157.449 130.393 157.328 130.067 157.212C129.749 157.092 129.448 156.988 129.163 156.902ZM121.578 149.526L125.946 146.794L130.897 154.711L129.568 155.543L125.367 148.824L123.598 149.93L127.851 156.732L126.581 157.526L121.578 149.526ZM127.667 145.189L129.009 144.351L134.888 153.752C135.115 154.116 135.254 154.425 135.303 154.681C135.358 154.944 135.317 155.195 135.18 155.434C135.049 155.682 134.835 155.92 134.538 156.15C134.246 156.387 133.879 156.645 133.436 156.922C133.293 156.747 133.092 156.548 132.831 156.325C132.584 156.106 132.355 155.924 132.144 155.781C132.426 155.616 132.69 155.456 132.935 155.303C133.188 155.145 133.362 155.036 133.457 154.976C133.616 154.877 133.645 154.749 133.546 154.591L127.667 145.189ZM126.598 147.097L127.88 146.295L132.527 153.726L131.245 154.527L126.598 147.097ZM124.212 150.306L125.435 149.541L128.412 154.301C128.654 154.689 128.87 155.104 129.059 155.547C129.243 155.983 129.367 156.445 129.43 156.933C129.497 157.409 129.463 157.909 129.328 158.434C129.202 158.953 128.945 159.493 128.559 160.054C128.46 159.984 128.322 159.905 128.146 159.817C127.975 159.737 127.8 159.659 127.621 159.584C127.446 159.517 127.304 159.474 127.193 159.455C127.525 158.983 127.75 158.551 127.868 158.158C127.989 157.752 128.028 157.375 127.986 157.027C127.94 156.671 127.842 156.33 127.694 156.005C127.545 155.679 127.372 155.358 127.174 155.042L124.212 150.306ZM119.169 152.089L119.383 150.188C119.649 150.154 119.95 150.126 120.287 150.102C120.624 150.078 120.954 150.059 121.275 150.045C121.605 150.026 121.882 150.029 122.107 150.054L121.926 152.115C121.717 152.081 121.451 152.06 121.128 152.053C120.804 152.046 120.469 152.047 120.121 152.055C119.774 152.063 119.457 152.074 119.169 152.089ZM120.716 155.514L120.902 153.647C121.168 153.613 121.462 153.583 121.787 153.556C122.119 153.524 122.446 153.502 122.768 153.488C123.084 153.466 123.356 153.461 123.584 153.473L123.42 155.507C123.211 155.473 122.947 155.456 122.629 155.457C122.31 155.458 121.984 155.464 121.649 155.475C121.31 155.478 120.999 155.491 120.716 155.514ZM124.509 161.183C124.461 160.773 124.392 160.31 124.301 159.794C124.213 159.266 124.11 158.714 123.992 158.138C123.877 157.55 123.746 156.971 123.6 156.402L125.557 156.416C125.698 156.923 125.829 157.441 125.951 157.97C126.08 158.494 126.2 159.02 126.309 159.546C126.421 160.059 126.524 160.567 126.618 161.07L124.509 161.183ZM144.195 142.284C144.909 143.038 145.632 143.587 146.365 143.932C147.099 144.277 147.911 144.397 148.802 144.291C149.694 144.185 150.731 143.828 151.914 143.22C151.877 143.408 151.855 143.636 151.847 143.906C151.839 144.175 151.842 144.443 151.855 144.71C151.876 144.972 151.902 145.208 151.935 145.419C150.917 145.869 149.995 146.154 149.168 146.275C148.354 146.399 147.592 146.369 146.882 146.185C146.181 145.996 145.502 145.667 144.845 145.197C144.183 144.719 143.493 144.11 142.777 143.369L144.195 142.284ZM142.314 142.734L143.999 141.68C144.365 142.354 144.677 143.001 144.933 143.622C145.193 144.231 145.365 144.833 145.452 145.428C145.533 146.016 145.492 146.619 145.329 147.239C145.169 147.845 144.859 148.485 144.399 149.158C143.944 149.839 143.301 150.571 142.47 151.355C142.265 151.185 141.991 151.01 141.646 150.829C141.302 150.649 140.996 150.52 140.729 150.445C141.487 149.773 142.078 149.161 142.504 148.609C142.929 148.057 143.217 147.541 143.368 147.061C143.52 146.581 143.566 146.118 143.506 145.671C143.442 145.216 143.301 144.753 143.084 144.283C142.87 143.8 142.614 143.284 142.314 142.734ZM139.964 144.864L141.81 144.436C141.976 145.037 142.071 145.638 142.095 146.239C142.119 146.841 141.999 147.433 141.736 148.016L139.751 147.904C139.974 147.434 140.099 146.937 140.124 146.415C140.158 145.888 140.104 145.371 139.964 144.864ZM146.652 140.879L148.803 140.41C148.765 140.984 148.716 141.548 148.656 142.103C148.604 142.653 148.538 143.129 148.459 143.531L146.652 143.836C146.691 143.547 146.713 143.23 146.718 142.886C146.731 142.537 146.733 142.188 146.725 141.841C146.712 141.486 146.688 141.165 146.652 140.879ZM138.429 143.281L145.385 138.931L146.231 140.285L139.275 144.634L138.429 143.281ZM136.064 142.299L146.653 135.678L147.529 137.079L136.94 143.7L136.064 142.299ZM136.426 139.762L144.141 134.937L147.274 139.946L145.529 141.037L143.25 137.393L137.28 141.127L136.426 139.762ZM153.417 130.573L158.236 127.559L159.157 129.031L154.337 132.045L153.417 130.573ZM154.7 135.847L160.908 131.964L161.784 133.365L155.576 137.247L154.7 135.847ZM154.811 132.459L158.075 130.417L158.936 131.794L155.672 133.836L154.811 132.459ZM157.491 137.536L162.357 134.493L163.219 135.87L158.352 138.913L157.491 137.536ZM152.401 129.425L154.204 128.743C154.54 129.667 154.795 130.603 154.969 131.55C155.144 132.498 155.206 133.346 155.156 134.092C155.001 134.057 154.804 134.032 154.563 134.017C154.318 133.994 154.071 133.978 153.823 133.968C153.582 133.953 153.377 133.95 153.205 133.958C153.286 133.313 153.247 132.589 153.086 131.787C152.934 130.98 152.705 130.192 152.401 129.425ZM157.565 130.737L158.989 129.846C158.989 129.846 159.014 129.885 159.063 129.964C159.113 130.044 159.17 130.135 159.234 130.238C159.298 130.34 159.346 130.426 159.378 130.494C160.064 131.661 160.641 132.655 161.109 133.474C161.577 134.293 161.948 134.974 162.223 135.518C162.505 136.057 162.706 136.493 162.825 136.826C162.948 137.145 163.006 137.395 162.998 137.576C162.99 137.845 162.944 138.062 162.859 138.225C162.781 138.383 162.668 138.537 162.519 138.685C162.388 138.811 162.223 138.942 162.022 139.078C161.821 139.215 161.603 139.351 161.369 139.487C161.237 139.294 161.054 139.089 160.82 138.872C160.598 138.659 160.375 138.496 160.15 138.383C160.321 138.287 160.477 138.201 160.616 138.125C160.756 138.048 160.873 137.981 160.968 137.921C161.047 137.872 161.1 137.816 161.128 137.755C161.156 137.694 161.173 137.606 161.178 137.492C161.184 137.378 161.13 137.187 161.017 136.917C160.906 136.634 160.718 136.245 160.452 135.75C160.195 135.251 159.843 134.618 159.397 133.851C158.958 133.079 158.412 132.144 157.758 131.045L157.565 130.737ZM154.182 132.852L155.582 131.976C155.887 132.534 156.201 133.125 156.525 133.748C156.852 134.358 157.17 134.973 157.481 135.594C157.787 136.206 158.078 136.795 158.354 137.359C158.626 137.916 158.865 138.422 159.072 138.876L157.588 139.672C157.389 139.213 157.158 138.702 156.894 138.14C156.626 137.571 156.341 136.984 156.041 136.379C155.735 135.767 155.423 135.163 155.107 134.569C154.793 133.961 154.485 133.389 154.182 132.852ZM156.292 132.424L157.586 131.615C157.812 132.013 158.045 132.429 158.283 132.863C158.522 133.297 158.757 133.734 158.987 134.173C159.226 134.607 159.448 135.024 159.654 135.424C159.86 135.824 160.041 136.184 160.197 136.504L158.829 137.195C158.681 136.869 158.506 136.511 158.305 136.119C158.104 135.727 157.893 135.32 157.673 134.896C157.447 134.465 157.213 134.039 156.972 133.617C156.738 133.191 156.512 132.793 156.292 132.424ZM159.751 127.817L163.823 125.271L164.788 126.814L160.716 129.36L159.751 127.817ZM158.282 125.731L160.111 124.933C160.503 125.789 160.852 126.655 161.158 127.532C161.459 128.4 161.695 129.244 161.865 130.062C162.043 130.875 162.124 131.628 162.106 132.322C161.963 132.268 161.765 132.216 161.512 132.165C161.255 132.105 160.996 132.052 160.736 132.006C160.471 131.952 160.248 131.921 160.067 131.913C160.092 131.336 160.026 130.711 159.869 130.038C159.716 129.353 159.499 128.646 159.22 127.918C158.944 127.177 158.631 126.448 158.282 125.731ZM162.281 127.638L164.052 126.746C164.703 128.122 165.187 129.415 165.504 130.626C165.821 131.837 165.941 132.989 165.866 134.082C165.79 135.176 165.489 136.244 164.964 137.288C164.824 137.222 164.628 137.146 164.376 137.061C164.138 136.979 163.888 136.904 163.625 136.837C163.363 136.77 163.141 136.722 162.958 136.693C163.496 135.795 163.807 134.874 163.889 133.931C163.979 132.984 163.879 131.989 163.591 130.947C163.311 129.901 162.874 128.798 162.281 127.638ZM161.344 128.621C162.078 129.461 162.846 130.213 163.648 130.879C164.444 131.537 165.271 132.049 166.128 132.416C166.985 132.783 167.867 132.952 168.774 132.924C168.712 133.106 168.657 133.327 168.611 133.587C168.572 133.843 168.54 134.099 168.515 134.358C168.502 134.619 168.499 134.852 168.506 135.057C167.458 135.018 166.462 134.772 165.517 134.317C164.567 133.854 163.644 133.232 162.747 132.449C161.851 131.667 160.951 130.765 160.049 129.745L161.344 128.621ZM172.727 121.37L180.858 116.285L181.697 117.627L173.566 122.711L172.727 121.37ZM174.935 124.795L181.297 120.816L182.129 122.145L175.766 126.124L174.935 124.795ZM173.763 119.831L175.389 118.814L176.955 121.319L178.724 120.213L177.158 117.708L178.855 116.647L181.223 120.433L176.131 123.618L173.763 119.831ZM180.858 121.091L181.19 120.883L181.45 120.638L182.864 120.496C182.958 121.351 182.902 122.168 182.696 122.947C182.484 123.717 182.153 124.464 181.702 125.186C181.254 125.896 180.707 126.579 180.061 127.236C179.42 127.901 178.707 128.556 177.922 129.201C177.725 129.027 177.466 128.842 177.145 128.647C176.833 128.446 176.555 128.3 176.311 128.21C177.031 127.672 177.69 127.123 178.286 126.563C178.89 125.998 179.404 125.429 179.828 124.856C180.254 124.27 180.569 123.682 180.772 123.093C180.979 122.49 181.052 121.894 180.992 121.304L180.858 121.091ZM178.196 124.175C178.784 124.358 179.446 124.412 180.181 124.338C180.924 124.258 181.719 124.069 182.567 123.77C183.41 123.463 184.296 123.068 185.227 122.585C185.183 122.778 185.148 123.004 185.122 123.262C185.109 123.523 185.104 123.779 185.107 124.031C185.11 124.282 185.123 124.505 185.146 124.7C184.122 125.175 183.146 125.533 182.217 125.772C181.296 126.007 180.405 126.113 179.543 126.09C178.681 126.068 177.847 125.913 177.039 125.625L178.196 124.175ZM172.913 116.598L174.717 115.469L175.89 117.345L174.086 118.473L172.913 116.598ZM170.208 119.692L179.455 113.91L180.413 115.441L171.166 121.224L170.208 119.692ZM169.366 120.219L171.016 119.188L173.079 122.488C173.391 122.986 173.719 123.546 174.064 124.167C174.408 124.788 174.731 125.445 175.032 126.138C175.336 126.817 175.586 127.508 175.783 128.211C175.975 128.905 176.079 129.572 176.094 130.212C175.939 130.177 175.736 130.15 175.482 130.132C175.229 130.115 174.974 130.103 174.718 130.099C174.467 130.102 174.256 130.117 174.087 130.146C174.078 129.568 173.987 128.982 173.812 128.386C173.638 127.791 173.417 127.208 173.149 126.638C172.883 126.056 172.598 125.502 172.292 124.978C171.989 124.441 171.701 123.955 171.429 123.519L169.366 120.219Z" fill="#7F95A2"/>
<g filter="url(#filter0_i_5318_533)">
<rect y="113.019" width="203.723" height="90.1535" rx="45.0768" transform="rotate(-32.0207 0 113.019)" fill="#7F95A2"/>
</g>
<rect x="1.37808" y="113.337" width="201.723" height="88.1535" rx="44.0768" transform="rotate(-32.0207 1.37808 113.337)" stroke="#F3F4EB" stroke-width="2"/>
<defs>
<filter id="filter0_i_5318_533" x="17.0367" y="22.0366" width="186.457" height="154.383" filterUnits="userSpaceOnUse" color-interpolation-filters="sRGB">
<feFlood flood-opacity="0" result="BackgroundImageFix"/>
<feBlend mode="normal" in="SourceGraphic" in2="BackgroundImageFix" result="shape"/>
<feColorMatrix in="SourceAlpha" type="matrix" values="0 0 0 0 0 0 0 0 0 0 0 0 0 0 0 0 0 0 127 0" result="hardAlpha"/>
<feMorphology radius="3" operator="erode" in="SourceAlpha" result="effect1_innerShadow_5318_533"/>
<feOffset dy="4"/>
<feGaussianBlur stdDeviation="2"/>
<feComposite in2="hardAlpha" operator="arithmetic" k2="-1" k3="1"/>
<feColorMatrix type="matrix" values="0 0 0 0 0 0 0 0 0 0 0 0 0 0 0 0 0 0 0.3 0"/>
<feBlend mode="normal" in2="shape" result="effect1_innerShadow_5318_533"/>
</filter>
</defs>
</svg>
